<svg width="24" height="22" viewBox="0 0 24 22" fill="none" xmlns="http://www.w3.org/2000/svg">
<path d="M22.8335 7.20839H20.1631L16.1547 1.19047C15.9953 0.951426 15.7474 0.785514 15.4656 0.729238C15.1838 0.672961 14.8912 0.73093 14.6522 0.890391C14.4131 1.04985 14.2472 1.29774 14.1909 1.57953C14.1346 1.86132 14.1926 2.15393 14.3521 2.39297L17.5598 7.20839H6.4405L9.65149 2.39297C9.81096 2.15393 9.86893 1.86132 9.81265 1.57953C9.75637 1.29774 9.59046 1.04985 9.35141 0.890391C9.11236 0.73093 8.81976 0.672961 8.53797 0.729238C8.25618 0.785514 8.00829 0.951426 7.84883 1.19047L3.83725 7.20839H1.16683C0.879511 7.20839 0.603961 7.32253 0.400797 7.52569C0.197633 7.72886 0.0834961 8.00441 0.0834961 8.29172C0.0834961 8.57904 0.197633 8.85459 0.400797 9.05776C0.603961 9.26092 0.879511 9.37506 1.16683 9.37506H2.25016V18.0417C2.25016 18.9037 2.59257 19.7303 3.20207 20.3398C3.81156 20.9493 4.63821 21.2917 5.50016 21.2917H18.5002C19.3621 21.2917 20.1888 20.9493 20.7983 20.3398C21.4078 19.7303 21.7502 18.9037 21.7502 18.0417V9.37506H22.8335C23.1208 9.37506 23.3964 9.26092 23.5995 9.05776C23.8027 8.85459 23.9168 8.57904 23.9168 8.29172C23.9168 8.00441 23.8027 7.72886 23.5995 7.52569C23.3964 7.32253 23.1208 7.20839 22.8335 7.20839ZM19.5835 18.0417C19.5835 18.329 19.4694 18.6046 19.2662 18.8078C19.063 19.0109 18.7875 19.1251 18.5002 19.1251H5.50016C5.21284 19.1251 4.93729 19.0109 4.73413 18.8078C4.53097 18.6046 4.41683 18.329 4.41683 18.0417V9.37506H19.5835V18.0417ZM6.5835 16.4167V12.0834C6.5835 11.7961 6.69763 11.5205 6.9008 11.3174C7.10396 11.1142 7.37951 11.0001 7.66683 11.0001C7.95415 11.0001 8.2297 11.1142 8.43286 11.3174C8.63603 11.5205 8.75016 11.7961 8.75016 12.0834V16.4167C8.75016 16.704 8.63603 16.9796 8.43286 17.1828C8.2297 17.3859 7.95415 17.5001 7.66683 17.5001C7.37951 17.5001 7.10396 17.3859 6.9008 17.1828C6.69763 16.9796 6.5835 16.704 6.5835 16.4167ZM10.9168 16.4167V12.0834C10.9168 11.7961 11.031 11.5205 11.2341 11.3174C11.4373 11.1142 11.7128 11.0001 12.0002 11.0001C12.2875 11.0001 12.563 11.1142 12.7662 11.3174C12.9694 11.5205 13.0835 11.7961 13.0835 12.0834V16.4167C13.0835 16.704 12.9694 16.9796 12.7662 17.1828C12.563 17.3859 12.2875 17.5001 12.0002 17.5001C11.7128 17.5001 11.4373 17.3859 11.2341 17.1828C11.031 16.9796 10.9168 16.704 10.9168 16.4167ZM15.2502 16.4167V12.0834C15.2502 11.7961 15.3643 11.5205 15.5675 11.3174C15.7706 11.1142 16.0462 11.0001 16.3335 11.0001C16.6208 11.0001 16.8964 11.1142 17.0995 11.3174C17.3027 11.5205 17.4168 11.7961 17.4168 12.0834V16.4167C17.4168 16.704 17.3027 16.9796 17.0995 17.1828C16.8964 17.3859 16.6208 17.5001 16.3335 17.5001C16.0462 17.5001 15.7706 17.3859 15.5675 17.1828C15.3643 16.9796 15.2502 16.704 15.2502 16.4167Z" fill="white"/>
</svg>
