<?xml version="1.0" encoding="UTF-8" standalone="no"?><!DOCTYPE svg PUBLIC "-//W3C//DTD SVG 1.1//EN" "http://www.w3.org/Graphics/SVG/1.1/DTD/svg11.dtd"><svg width="100%" height="100%" viewBox="0 0 55 55" version="1.1" xmlns="http://www.w3.org/2000/svg" xmlns:xlink="http://www.w3.org/1999/xlink" xml:space="preserve" xmlns:serif="http://www.serif.com/" style="fill-rule:evenodd;clip-rule:evenodd;stroke-linejoin:round;stroke-miterlimit:2;"><g><path d="M8.75,1.5c-2.001,-2 -5.249,-2 -7.25,0c-2,2.001 -2,5.249 0,7.25l43.835,43.834c2,2.001 5.249,2.001 7.249,0c2.001,-2 2.001,-5.249 0,-7.249l-43.834,-43.835Z" style="fill:#9d9d9d;"/><path d="M52.584,8.75c2.001,-2.001 2.001,-5.249 0,-7.25c-2,-2 -5.249,-2 -7.249,0l-43.835,43.835c-2,2 -2,5.249 0,7.249c2.001,2.001 5.249,2.001 7.25,0l43.834,-43.834Z" style="fill:#9d9d9d;"/></g></svg>