<?xml version="1.0" encoding="UTF-8" standalone="no"?><!DOCTYPE svg PUBLIC "-//W3C//DTD SVG 1.1//EN" "http://www.w3.org/Graphics/SVG/1.1/DTD/svg11.dtd"><svg width="100%" height="100%" viewBox="0 0 258 258" version="1.1" xmlns="http://www.w3.org/2000/svg" xmlns:xlink="http://www.w3.org/1999/xlink" xml:space="preserve" xmlns:serif="http://www.serif.com/" style="fill-rule:evenodd;clip-rule:evenodd;stroke-linejoin:round;stroke-miterlimit:2;"><path d="M128.541,222.023c3.098,-0 6.068,1.229 8.263,3.42c2.19,2.194 3.42,5.165 3.42,8.263l-0,11.688c-0,3.098 -1.23,6.072 -3.42,8.263c-2.195,2.19 -5.165,3.42 -8.263,3.42c-3.103,-0 -6.073,-1.23 -8.264,-3.42c-2.19,-2.191 -3.424,-5.165 -3.424,-8.263l0,-11.688c0,-3.098 1.234,-6.069 3.424,-8.263c2.191,-2.191 5.161,-3.42 8.264,-3.42Zm82.627,-27.381l8.259,8.263c1.115,1.075 2.005,2.367 2.618,3.795c0.613,1.423 0.934,2.957 0.952,4.508c0.013,1.551 -0.287,3.089 -0.873,4.526c-0.586,1.437 -1.454,2.741 -2.551,3.839c-1.098,1.097 -2.402,1.965 -3.839,2.551c-1.437,0.586 -2.975,0.886 -4.526,0.873c-1.551,-0.018 -3.085,-0.339 -4.508,-0.952c-1.428,-0.613 -2.72,-1.503 -3.795,-2.618l-8.263,-8.259c-2.129,-2.208 -3.305,-5.156 -3.279,-8.223c0.026,-3.063 1.256,-5.994 3.424,-8.158c2.164,-2.168 5.095,-3.398 8.158,-3.424c3.067,-0.026 6.015,1.15 8.223,3.279Zm-148.733,-0c2.19,2.19 3.42,5.165 3.42,8.263c-0,3.098 -1.23,6.069 -3.42,8.263l-8.264,8.259c-2.203,2.129 -5.151,3.31 -8.219,3.279c-3.063,-0.026 -5.993,-1.256 -8.162,-3.42c-2.163,-2.168 -3.393,-5.099 -3.419,-8.162c-0.027,-3.063 1.15,-6.015 3.278,-8.219l8.264,-8.263c2.19,-2.19 5.16,-3.42 8.258,-3.42c3.103,0 6.073,1.23 8.264,3.42Zm66.106,4.01c13.864,0 27.42,-4.111 38.949,-11.815c11.529,-7.708 20.519,-18.655 25.825,-31.466c5.306,-12.812 6.695,-26.91 3.989,-40.51c-2.706,-13.6 -9.383,-26.094 -19.189,-35.9c-9.805,-9.806 -22.299,-16.482 -35.899,-19.188c-13.601,-2.706 -27.694,-1.318 -40.506,3.993c-12.811,5.306 -23.762,14.292 -31.466,25.821c-7.704,11.528 -11.815,25.085 -11.815,38.954c0.017,18.588 7.408,36.411 20.554,49.552c13.146,13.147 30.969,20.542 49.558,20.559Zm128.536,-70.111c-0,3.098 -1.23,6.068 -3.42,8.263c-2.191,2.19 -5.165,3.42 -8.263,3.42l-11.688,-0c-3.098,-0 -6.069,-1.23 -8.263,-3.42c-2.191,-2.195 -3.42,-5.165 -3.42,-8.263c-0,-3.103 1.229,-6.073 3.42,-8.264c2.194,-2.19 5.165,-3.424 8.263,-3.424l11.688,0c3.098,0 6.072,1.234 8.263,3.424c2.19,2.191 3.42,5.161 3.42,8.264Zm-257.077,-0c-0,-3.103 1.23,-6.073 3.424,-8.264c2.191,-2.19 5.161,-3.424 8.264,-3.424l11.683,0c3.098,0 6.073,1.234 8.263,3.424c2.19,2.191 3.424,5.161 3.424,8.264c0,3.098 -1.234,6.068 -3.424,8.263c-2.19,2.19 -5.165,3.42 -8.263,3.42l-11.683,-0c-3.103,-0 -6.073,-1.23 -8.264,-3.42c-2.194,-2.195 -3.424,-5.165 -3.424,-8.263Zm37.649,-74.37c-2.128,-2.203 -3.305,-5.151 -3.278,-8.219c0.026,-3.063 1.256,-5.993 3.419,-8.162c2.169,-2.163 5.099,-3.393 8.162,-3.419c3.068,-0.027 6.016,1.15 8.219,3.278l8.264,8.264c1.115,1.075 2.005,2.366 2.618,3.79c0.612,1.428 0.934,2.961 0.947,4.513c0.013,1.551 -0.282,3.089 -0.868,4.526c-0.586,1.436 -1.454,2.741 -2.552,3.838c-1.097,1.098 -2.402,1.966 -3.838,2.552c-1.437,0.586 -2.975,0.881 -4.526,0.868c-1.552,-0.013 -3.085,-0.335 -4.513,-0.947c-1.424,-0.613 -2.715,-1.503 -3.79,-2.618l-8.264,-8.264Zm156.993,8.264c-2.19,-2.191 -3.42,-5.161 -3.42,-8.264c0,-3.098 1.23,-6.068 3.42,-8.258l8.263,-8.264c2.204,-2.128 5.156,-3.305 8.219,-3.278c3.063,0.026 5.994,1.256 8.162,3.419c2.164,2.169 3.394,5.099 3.42,8.162c0.031,3.068 -1.15,6.016 -3.279,8.219l-8.259,8.264c-2.194,2.19 -5.165,3.42 -8.263,3.42c-3.098,-0 -6.073,-1.23 -8.263,-3.42Zm-77.789,-39.064l0,-11.683c0,-3.103 1.234,-6.073 3.424,-8.264c2.191,-2.194 5.161,-3.424 8.264,-3.424c3.098,0 6.068,1.23 8.263,3.424c2.19,2.191 3.42,5.161 3.42,8.264l-0,11.683c-0,3.098 -1.23,6.073 -3.42,8.263c-2.195,2.19 -5.165,3.424 -8.263,3.424c-3.103,0 -6.073,-1.234 -8.264,-3.424c-2.19,-2.19 -3.424,-5.165 -3.424,-8.263Z" style="fill:#9d9d9d;fill-rule:nonzero;"/></svg>