<?xml version="1.0" encoding="UTF-8" standalone="no"?><!DOCTYPE svg PUBLIC "-//W3C//DTD SVG 1.1//EN" "http://www.w3.org/Graphics/SVG/1.1/DTD/svg11.dtd"><svg width="100%" height="100%" viewBox="0 0 59 59" version="1.1" xmlns="http://www.w3.org/2000/svg" xmlns:xlink="http://www.w3.org/1999/xlink" xml:space="preserve" xmlns:serif="http://www.serif.com/" style="fill-rule:evenodd;clip-rule:evenodd;stroke-linejoin:round;stroke-miterlimit:2;"><path d="M36.062,40.949c0.147,0.245 0.326,0.477 0.537,0.688l15.648,15.652c1.391,1.392 3.651,1.392 5.043,0c1.391,-1.392 1.391,-3.652 -0,-5.044l-15.648,-15.652c-0.211,-0.212 -0.442,-0.391 -0.688,-0.538l0.076,-0.076c2.811,-3.864 4.323,-8.52 4.318,-13.298c0,-12.506 -10.172,-22.681 -22.674,-22.681c-12.502,-0 -22.674,10.175 -22.674,22.681c-0,12.506 10.172,22.681 22.674,22.681c4.777,0.005 9.431,-1.507 13.293,-4.319l0.095,-0.094Zm-13.388,-2.75c-3.069,0 -6.068,-0.91 -8.62,-2.615c-2.551,-1.705 -4.54,-4.129 -5.714,-6.965c-1.175,-2.835 -1.482,-5.956 -0.884,-8.966c0.599,-3.011 2.077,-5.776 4.246,-7.947c2.17,-2.17 4.935,-3.648 7.944,-4.247c3.01,-0.599 6.129,-0.292 8.964,0.883c2.835,1.175 5.258,3.164 6.963,5.717c1.704,2.552 2.614,5.553 2.614,8.622c-0.005,4.114 -1.641,8.059 -4.549,10.968c-2.908,2.909 -6.851,4.545 -10.964,4.55Z" style="fill:#9d9d9d;fill-rule:nonzero;"/></svg>