<?xml version="1.0" encoding="UTF-8" standalone="no"?><!DOCTYPE svg PUBLIC "-//W3C//DTD SVG 1.1//EN" "http://www.w3.org/Graphics/SVG/1.1/DTD/svg11.dtd"><svg width="100%" height="100%" viewBox="0 0 59 57" version="1.1" xmlns="http://www.w3.org/2000/svg" xmlns:xlink="http://www.w3.org/1999/xlink" xml:space="preserve" xmlns:serif="http://www.serif.com/" style="fill-rule:evenodd;clip-rule:evenodd;stroke-linejoin:round;stroke-miterlimit:2;"><path d="M19.108,24.141l-16.091,0c-1.672,0 -3.017,-1.345 -3.017,-3.017l0,-16.091c0,-1.219 0.729,-2.325 1.861,-2.791c1.131,-0.465 2.426,-0.213 3.293,0.654l5.23,5.23c11.012,-10.874 28.75,-10.837 39.7,0.126c10.999,10.999 10.999,28.825 -0,39.825c-11,11 -28.826,11 -39.826,-0c-1.571,-1.571 -1.571,-4.123 0,-5.695c1.571,-1.571 4.123,-1.571 5.695,0c7.857,7.857 20.591,7.857 28.448,0c7.857,-7.857 7.857,-20.591 0,-28.448c-7.819,-7.82 -20.453,-7.857 -28.322,-0.126l5.166,5.179c0.868,0.868 1.119,2.163 0.654,3.294c-0.465,1.131 -1.571,1.86 -2.791,1.86Z" style="fill:#9d9d9d;fill-rule:nonzero;"/></svg>