<?xml version="1.0" encoding="UTF-8" standalone="no"?><!DOCTYPE svg PUBLIC "-//W3C//DTD SVG 1.1//EN" "http://www.w3.org/Graphics/SVG/1.1/DTD/svg11.dtd"><svg width="100%" height="100%" viewBox="0 0 14 14" version="1.1" xmlns="http://www.w3.org/2000/svg" xmlns:xlink="http://www.w3.org/1999/xlink" xml:space="preserve" xmlns:serif="http://www.serif.com/" style="fill-rule:evenodd;clip-rule:evenodd;stroke-linejoin:round;stroke-miterlimit:2;"><g><path d="M2.777,5.45c0,-0.178 0.071,-0.35 0.198,-0.476c0.126,-0.126 0.297,-0.197 0.476,-0.197l1.346,-0l-0,-1.347c-0,-0.178 0.071,-0.35 0.197,-0.476c0.126,-0.126 0.297,-0.197 0.476,-0.197c0.178,-0 0.35,0.071 0.476,0.197c0.126,0.126 0.197,0.298 0.197,0.476l0,1.347l1.346,-0c0.179,-0 0.35,0.071 0.476,0.197c0.127,0.126 0.198,0.298 0.198,0.476c-0,0.179 -0.071,0.35 -0.198,0.476c-0.126,0.127 -0.297,0.198 -0.476,0.198l-1.346,-0l0,1.346c0,0.179 -0.071,0.35 -0.197,0.476c-0.126,0.127 -0.298,0.198 -0.476,0.198c-0.179,-0 -0.35,-0.071 -0.476,-0.198c-0.126,-0.126 -0.197,-0.297 -0.197,-0.476l-0,-1.346l-1.346,-0c-0.089,-0 -0.177,-0.018 -0.258,-0.052c-0.082,-0.034 -0.156,-0.083 -0.219,-0.146c-0.062,-0.063 -0.112,-0.137 -0.146,-0.219c-0.034,-0.082 -0.051,-0.17 -0.051,-0.258l0,0.001Z" style="fill:#9d9d9d;fill-rule:nonzero;"/><path d="M8.655,9.828c0.035,0.059 0.078,0.114 0.129,0.165l3.755,3.756c0.334,0.335 0.877,0.335 1.211,0c0.333,-0.334 0.333,-0.876 -0,-1.21l-3.756,-3.757c-0.051,-0.051 -0.106,-0.094 -0.165,-0.129l0.018,-0.018c0.675,-0.927 1.038,-2.045 1.037,-3.192c-0,-3.001 -2.442,-5.443 -5.442,-5.443c-3.001,0 -5.442,2.442 -5.442,5.443c0,3.002 2.441,5.444 5.442,5.444c1.146,0.001 2.263,-0.362 3.19,-1.037l0.023,-0.022Zm-3.213,-0.66c-0.737,-0 -1.457,-0.219 -2.069,-0.628c-0.612,-0.409 -1.09,-0.991 -1.372,-1.671c-0.281,-0.681 -0.355,-1.43 -0.211,-2.152c0.143,-0.723 0.498,-1.387 1.019,-1.908c0.52,-0.52 1.184,-0.875 1.906,-1.019c0.722,-0.144 1.471,-0.07 2.151,0.212c0.681,0.282 1.262,0.76 1.671,1.372c0.41,0.613 0.628,1.333 0.628,2.069c-0.001,0.988 -0.394,1.935 -1.092,2.633c-0.698,0.698 -1.644,1.091 -2.631,1.092Z" style="fill:#9d9d9d;fill-rule:nonzero;"/></g></svg>